<?xml version="1.0" standalone="no"?>
<!DOCTYPE svg PUBLIC "-//W3C//DTD SVG 20010904//EN"
 "http://www.w3.org/TR/2001/REC-SVG-20010904/DTD/svg10.dtd">
<svg version="1.0" xmlns="http://www.w3.org/2000/svg"
 width="700.000000pt" height="700.000000pt" viewBox="0 0 700.000000 700.000000"
 preserveAspectRatio="xMidYMid meet">
<metadata>
Created by potrace 1.14, written by Peter Selinger 2001-2017
</metadata>
<g transform="translate(0.000000,700.000000) scale(0.100000,-0.100000)"
fill="#000000" stroke="none">
<path d="M2931 6974 c-95 -32 -159 -75 -248 -166 -85 -87 -103 -109 -175 -213
-153 -220 -299 -571 -325 -775 -3 -25 -8 -48 -12 -51 -3 -3 -62 -20 -131 -38
-574 -150 -958 -389 -1040 -648 -66 -209 59 -419 356 -595 106 -64 255 -133
380 -178 l92 -32 -20 -20 c-51 -51 -73 -159 -53 -268 9 -50 36 -153 43 -165 4
-5 7 -16 8 -23 4 -23 65 -136 98 -178 66 -88 150 -114 214 -67 l30 22 12 -32
c33 -84 49 -120 98 -220 62 -126 133 -244 205 -341 51 -69 51 -70 48 -135 -4
-92 -9 -134 -27 -222 -5 -25 -7 -26 -43 -16 -20 6 -49 7 -63 4 -14 -4 -89 -71
-169 -151 l-144 -144 -180 -56 c-197 -63 -237 -77 -245 -86 -3 -4 -57 -24
-120 -44 -204 -66 -349 -159 -508 -322 -150 -156 -291 -404 -326 -575 -3 -13
-8 -35 -11 -49 -20 -91 -25 -206 -23 -555 l3 -390 30 -59 c33 -65 93 -124 163
-158 l47 -23 2605 0 2605 0 58 29 c68 35 126 94 159 163 23 48 23 48 23 483 0
424 -1 437 -24 530 -59 236 -174 441 -346 615 -157 160 -290 243 -489 309 -60
20 -115 41 -122 47 -11 9 -144 53 -365 121 -63 19 -72 26 -209 164 -79 80
-155 147 -169 151 -14 3 -42 2 -62 -4 l-38 -10 -11 51 c-6 28 -14 95 -17 148
l-6 97 50 68 c89 123 138 206 207 348 37 77 71 147 76 155 4 9 11 31 15 49 6
28 10 32 28 25 12 -4 43 -7 69 -7 77 0 151 66 217 193 95 185 124 364 75 469
-13 28 -30 54 -39 57 -27 11 -16 23 37 39 63 18 274 108 348 148 182 98 325
221 393 338 67 116 72 239 15 359 -110 228 -476 445 -979 580 -84 23 -159 43
-165 45 -6 2 -14 27 -18 56 -10 71 -28 139 -77 282 -91 270 -264 554 -442 727
-105 103 -216 156 -341 166 -86 7 -163 -15 -258 -76 -119 -75 -140 -84 -198
-84 -49 -1 -65 5 -129 44 -41 25 -85 52 -100 61 -102 60 -223 72 -340 33z"/>
</g>
</svg>
