<svg width="273" height="544" viewBox="0 0 273 544" fill="none" xmlns="http://www.w3.org/2000/svg">
<path d="M185.099 35.7212C182.898 31.8671 177.509 30.9434 174.958 27.3123C172.008 23.1398 173.762 16.7853 170.477 12.8676C168.323 10.7326 165.413 9.53105 162.378 9.52316C159.374 9.52538 156.379 9.19422 153.449 8.53576C148.267 6.94318 144.52 1.94246 139.226 0.779877C136.373 0.300799 133.442 0.868831 130.974 2.37917C128.507 3.8895 126.669 6.24023 125.801 8.99761C125.492 10.0314 125.331 11.1038 125.323 12.1828C123.966 12.183 122.624 12.4665 121.383 13.015C120.142 13.5635 119.029 14.3649 118.116 15.3679C116.203 17.5179 115.326 20.4324 113.333 22.5346C111.34 24.6368 108.247 25.9268 106.588 28.4271C105.735 29.8364 105.192 31.4107 104.994 33.0456C104.101 38.3967 104.611 44.2893 107.96 48.5574C111.308 52.8255 118.02 54.657 122.309 51.4081C122.309 51.4081 152.604 65.7414 158.806 69.5636C161.923 71.4218 165.53 72.2946 169.152 72.0672C172.775 71.8398 176.244 70.5229 179.103 68.2895C179.736 67.8651 180.275 67.3153 180.687 66.6742C181.098 66.0332 181.373 65.3145 181.495 64.5628C181.333 63.0662 180.878 61.616 180.156 60.2947C178.737 56.1859 181.065 51.8222 183.137 47.984C185.21 44.1459 187.251 39.5115 185.099 35.7212Z" fill="#333333"/>
<path d="M112.392 38.7789C114.72 24.159 129.309 -0.318999 155.219 14.7468C163.382 19.5246 166.858 28.1245 168.5 37.043C169.664 43.3019 167.448 101.288 167.448 101.288C165.63 124.062 130.043 127.502 127.747 101.129L128.448 84.7409C109.666 78.7687 109.793 55.2144 112.392 38.7789Z" fill="#F9C4B4"/>
<path d="M128.448 84.7886C128.448 84.7886 139.051 88.3242 159.061 75.902C151.203 86.4997 140.321 94.4771 127.842 98.7874L128.448 84.7886Z" fill="#333333"/>
<path d="M181.942 46.5189C181.594 43.8126 180.196 41.3509 178.049 39.6647C175.901 37.9785 173.176 37.2028 170.462 37.5048C169.122 37.6398 167.823 38.0385 166.639 38.678C165.454 39.3175 164.409 40.185 163.562 41.2305C162.716 42.276 162.085 43.4787 161.707 44.7691C161.328 46.0595 161.209 47.412 161.357 48.7485C161.7 51.4554 163.098 53.9182 165.247 55.6026C167.396 57.2871 170.123 58.0574 172.837 57.7466C174.176 57.6136 175.475 57.2167 176.659 56.5789C177.843 55.9411 178.889 55.075 179.736 54.0308C180.582 52.9866 181.213 51.785 181.592 50.4955C181.971 49.2061 182.089 47.8545 181.942 46.5189Z" fill="#F9C4B4"/>
<path d="M173.491 43.2063C172.749 43.4553 172.038 43.7865 171.37 44.1937C170.169 44.9375 169.133 45.9184 168.325 47.0763C167.896 47.7264 167.538 48.4205 167.257 49.1466C166.877 48.3268 166.821 47.3946 167.097 46.5348C167.358 45.6535 167.848 44.8568 168.516 44.2255C169.183 43.6055 169.994 43.162 170.876 42.9356C171.752 42.703 172.682 42.7993 173.491 43.2063Z" fill="#251B2D"/>
<path d="M142.368 34.5745C142.368 35.4823 140.949 36.1671 139.322 36.0237C137.696 35.8804 136.42 35.0682 136.484 34.1604C136.548 33.2527 137.919 32.5678 139.545 32.7112C141.172 32.8545 142.431 33.6667 142.368 34.5745Z" fill="#371C09"/>
<path d="M123.585 34.0012C123.505 34.9089 122.134 35.5937 120.508 35.3708C118.882 35.1478 117.654 34.3197 117.734 33.4119C117.813 32.5041 119.184 31.8193 120.795 32.0423C122.405 32.2652 123.665 33.0456 123.585 34.0012Z" fill="#371C09"/>
<g style="mix-blend-mode:soft-light" opacity="0.46">
<path d="M149.287 69.7706C155.249 69.7706 160.082 64.9434 160.082 58.9888C160.082 53.0342 155.249 48.207 149.287 48.207C143.326 48.207 138.493 53.0342 138.493 58.9888C138.493 64.9434 143.326 69.7706 149.287 69.7706Z" fill="#333333"/>
</g>
<path d="M120.014 42.8081C120.014 43.9229 120.412 44.8626 121.05 44.9104C121.688 44.9581 122.294 44.0822 122.357 42.9515C122.421 41.8207 121.975 40.897 121.321 40.8493C120.667 40.8015 120.093 41.6774 120.014 42.8081Z" fill="#333333" stroke="#333333" stroke-width="0.49" stroke-miterlimit="10"/>
<path d="M136.66 43.3815C136.66 44.4963 137.042 45.4359 137.696 45.4837C138.35 45.5315 138.94 44.6555 139.003 43.5248C139.067 42.3941 138.621 41.4704 137.967 41.4226C137.313 41.3748 136.723 42.2507 136.66 43.3815Z" fill="#333333" stroke="#333333" stroke-width="0.49" stroke-miterlimit="10"/>
<g style="mix-blend-mode:soft-light" opacity="0.46">
<path d="M111.563 45.3881C110.711 52.5676 111.099 59.8398 112.711 66.888C115.454 66.5889 117.978 65.252 119.765 63.1518C121.552 61.0517 122.466 58.3478 122.319 55.5957C122.172 52.8435 120.975 50.2521 118.975 48.3537C116.974 46.4553 114.322 45.3941 111.563 45.3881Z" fill="#333333"/>
</g>
<path d="M134.507 58.0014C134.206 59.0073 133.625 59.9073 132.833 60.5973C131.994 61.3996 130.885 61.8598 129.724 61.8873C128.526 61.877 127.381 61.3964 126.535 60.5495C125.754 59.8252 125.238 58.8611 125.068 57.8103C125.961 58.3518 126.662 58.8614 127.491 59.2277C128.163 59.5736 128.904 59.7641 129.66 59.7851C130.434 59.7616 131.194 59.5772 131.892 59.2436C132.753 58.9092 133.534 58.4155 134.507 58.0014Z" fill="#333333"/>
<path d="M128.289 37.473C128.42 39.8794 128.35 42.2925 128.081 44.6874C127.954 45.8659 127.826 47.0603 127.635 48.2389C127.444 49.4174 127.236 50.5959 126.997 51.7744L126.439 50.9781C128.207 51.4537 129.939 52.0551 131.621 52.7777C129.791 52.7683 127.963 52.63 126.152 52.3636H125.53V51.647C125.626 50.4525 125.738 49.274 125.897 48.0796C126.056 46.8852 126.232 45.7226 126.439 44.5441C126.855 42.1392 127.474 39.7737 128.289 37.473Z" fill="#251B2D"/>
<path d="M134.507 58.0014C134.206 59.0073 133.625 59.9073 132.833 60.5973C131.994 61.3996 130.885 61.8598 129.724 61.8873C128.526 61.877 127.381 61.3964 126.535 60.5495C125.754 59.8252 125.238 58.8611 125.068 57.8103C125.961 58.3518 126.662 58.8614 127.491 59.2277C128.163 59.5736 128.904 59.7641 129.66 59.7851C130.434 59.7616 131.194 59.5772 131.892 59.2436C132.753 58.9092 133.534 58.4155 134.507 58.0014Z" fill="#333333"/>
<path d="M170.892 28.9208C169.502 25.3931 167.469 22.1533 164.897 19.3653C162.88 17.5199 160.654 15.9164 158.264 14.5876C156.577 13.5185 154.825 12.5558 153.018 11.705C150.964 10.8273 148.828 10.1551 146.641 9.69835C143.183 8.76816 139.583 8.48204 136.022 8.85428C132.931 9.2565 130.057 10.6608 127.842 12.8517C124.462 15.2704 121.595 18.334 119.408 21.8657C117.973 23.8883 116.569 25.9109 115.166 27.9334C116.069 27.7383 116.942 27.4279 117.765 27.0097C118.979 26.2906 120.103 25.4299 121.114 24.4457C123.942 22.0965 126.181 19.1186 127.651 15.7502C128.509 18.1384 130.209 20.1317 132.434 21.3561C135.28 22.7593 138.455 23.3648 141.618 23.1079C144.249 22.9964 146.991 22.5505 149.463 23.5061C150.694 24.0545 151.803 24.8426 152.726 25.8243C153.648 26.806 154.366 27.9615 154.836 29.2234C155.774 31.7535 156.39 34.3913 156.67 37.0749C156.711 38.2651 157.136 39.4103 157.881 40.3397C158.44 40.8379 159.133 41.1594 159.874 41.2634C163.063 41.8208 166.013 39.9734 168.484 37.9349C169.345 37.3634 170.085 36.6273 170.659 35.769C171.234 34.9107 171.633 33.9472 171.833 32.9341C171.867 31.5381 171.543 30.1566 170.892 28.9208Z" fill="#333333"/>
<path d="M48.8856 170.279C67.5246 143.81 115.613 105.237 115.613 105.237L127.922 115.382L92.4297 190.52C92.4297 190.52 68.7523 235.638 52.4252 236.785C27.2012 238.568 24.666 204.631 48.8856 170.279Z" fill="#F9C4B4"/>
<g style="mix-blend-mode:soft-light" opacity="0.46">
<path d="M115.023 141.994L92.8283 124.412L60.0785 156.694L90.8831 191.731L115.023 141.994Z" fill="#333333"/>
</g>
<path d="M99.9235 175.295L61.354 144.351C61.354 144.351 106.142 90.729 136.293 102.148L124.733 123.186L99.9235 175.295Z" fill="#BAD2C8"/>
<path d="M42.5397 143.746L38.8406 145.339C30.5814 148.779 22.3062 152.15 14.0151 155.452C18.5752 183.019 26.6591 215.333 34.8864 227.118C45.1865 241.881 72.7065 227.643 71.415 213.374C71.0323 207.895 51.915 164.673 42.5397 143.746Z" fill="#F9C4B4"/>
<path d="M48.5348 153.238C44.519 146.429 41.0943 139.29 38.2985 131.897C38.729 130.751 41.4874 117.978 40.1162 114.602C38.1231 109.346 28.684 120.542 28.6362 123.425C28.3492 120.733 25.8778 98.6282 21.8279 98.9945C19.3884 99.2174 20.5524 114.14 20.5524 114.14C20.5524 114.14 13.7282 94.8856 11.7192 95.6501C9.7102 96.4145 15.0037 115.111 15.0037 115.111C15.0037 115.111 8.036 101.16 5.80378 102.18C3.89045 103.04 9.12024 118.01 9.12024 118.01C9.12024 118.01 2.12062 110.158 0.271074 111.13C-1.57848 112.101 5.34139 124.508 6.34589 128.25C7.0315 130.798 10.316 156.439 14.6689 170.358C15.211 170.087 39.3668 158.223 48.5348 153.238Z" fill="#FC9B27"/>
<path d="M48.5348 153.238C48.5348 153.238 50.2568 154.305 49.7306 155.037C49.2044 155.77 16.072 173.177 15.1312 171.632L14.1746 170.04L48.5348 153.238Z" fill="#FCB970"/>
<path d="M52.6644 165.708L61.1787 184.007" stroke="#333333" stroke-width="1.1" stroke-miterlimit="10" stroke-linecap="round"/>
<path d="M161.692 227.834C155.123 209.806 107.848 221.146 107.848 221.146C107.848 221.146 85.5258 301.46 79.8177 384.433C73.2645 480.848 98.9509 588.555 98.9509 588.555C114.305 591.819 142.128 590.561 142.128 590.561V438.947C142.017 438.613 147.087 341.179 154.294 312.401C164.132 273.175 161.692 227.834 161.692 227.834Z" fill="#3F5B99"/>
<path d="M202.781 228.902C196.212 210.858 143.229 221.814 143.229 221.814C143.229 221.814 135.814 245.703 134.459 291.124C133.965 307.48 140.103 370.896 139.386 381.423C132.833 477.854 157.148 588.331 157.148 588.331C172.503 591.517 200.326 590.322 200.326 590.322V438.708C200.214 438.374 205.268 340.94 212.475 312.162C222.393 272.889 202.781 228.902 202.781 228.902Z" fill="#435CA1"/>
<g style="mix-blend-mode:soft-light" opacity="0.46">
<path d="M182.723 259.654C163.813 257.871 144.456 260.212 125.929 264.161C118.531 265.754 111.228 267.601 103.974 269.672C104.927 272.513 106.57 275.074 108.757 277.125C116.729 284.419 129.182 281.903 139.992 282.412C164.164 283.734 185.035 303.004 209.238 302.511C210.994 302.482 212.744 302.301 214.468 301.969C215.834 290.138 215.485 278.171 213.432 266.439C203.447 263.163 193.16 260.891 182.723 259.654Z" fill="#333333"/>
</g>
<path d="M185.529 280.167C185.529 280.167 174.368 329.839 194.059 333.04" stroke="#6693B9" stroke-width="1.2" stroke-miterlimit="10" stroke-linecap="round"/>
<path d="M198.348 279.641C194.139 334.952 194.346 334.076 190.87 361.787C187.682 387.395 183.935 480.737 191.939 555.954" stroke="#6693B9" stroke-width="1.2" stroke-miterlimit="10" stroke-linecap="round"/>
<path d="M103.288 273.765C103.288 273.765 102.73 323.851 86.3868 326.861" stroke="#6693B9" stroke-width="1.2" stroke-miterlimit="10" stroke-linecap="round"/>
<path d="M135.224 269.098C135.224 269.098 129.915 449.665 142.782 495.15" stroke="#6693B9" stroke-width="1.2" stroke-miterlimit="10" stroke-linecap="round"/>
<path d="M146.72 271.169C146.72 271.169 150.228 332.881 135.655 326.909" stroke="#6693B9" stroke-width="1.2" stroke-miterlimit="10" stroke-linecap="round"/>
<path d="M166.731 98.2141L128.002 99.8067L120.029 100.444C107.816 106.4 106.078 116.21 101.789 128.824C91.5209 159.083 93.4661 201.031 96.5433 229.029C96.5433 229.029 86.1635 263.668 93.1153 270.898C101.598 279.721 128.002 266.789 140.183 269.098C151.982 271.344 169.074 278.558 189.978 279.1C242.977 280.501 213.001 251.803 212.81 240.766C223.269 221.321 217.864 172.524 203.482 134.414C198.237 120.51 190.424 106.878 177.541 99.8704C174.83 98.3734 168.963 98.2141 166.731 98.2141Z" fill="#BAD2C8"/>
<path d="M120.269 100.444C120.269 100.444 102.427 226.162 107.322 274.035C107.561 276.392 116.617 272.172 116.617 272.172C114.018 233.727 126.774 99.9023 126.774 99.9023L120.269 100.444Z" fill="#2D458B"/>
<path d="M175.867 98.8034C175.867 98.8034 190.217 231.481 185.338 279.402C185.099 281.743 176.042 277.539 176.042 277.539C178.641 239.094 169.361 98.2937 169.361 98.2937L175.867 98.8034Z" fill="#2D458B"/>
<path d="M231.13 194.741C223.828 163.223 193.788 109.41 193.788 109.41L178.561 114.188L183.153 197.161C183.153 197.161 188.112 247.837 202.781 255.052C225.502 266.168 240.633 235.67 231.13 194.741Z" fill="#F9C4B4"/>
<g style="mix-blend-mode:soft-light" opacity="0.46">
<path d="M180.491 143.698L207.676 135.735L225.853 177.955L184.126 198.834L180.491 143.698Z" fill="#333333"/>
</g>
<path d="M181.957 180.216L229.344 166.042C229.344 166.042 208.027 99.52 175.819 98.8034L178.561 122.692L181.957 180.216Z" fill="#BAD2C8"/>
<path d="M83.8677 181.251C83.6126 180.471 73.5516 166.679 73.5516 166.679C73.5516 166.679 74.2213 155.229 85.6853 154.958C97.1493 154.687 196.403 152.362 170.892 178.385C145.381 204.408 83.8677 181.251 83.8677 181.251Z" fill="#3F1F1F"/>
<path d="M168.755 172.062C168.389 165.596 170.509 159.322 172.901 153.254C181.431 131.706 194.314 111.146 213.432 98.023C191.207 117.999 177.661 145.848 175.675 175.646" fill="#698937"/>
<path d="M172.008 172.874C180.766 147.132 198.013 125.122 220.926 110.445L210.992 121.354C198.683 134.875 185.673 150.021 185.067 168.304" fill="#698937"/>
<path d="M107.609 203.356C100.771 201.174 94.9339 196.632 91.1438 190.542C87.3538 184.453 85.8581 177.214 86.9249 170.124C87.9916 163.033 91.5511 156.554 96.9655 151.846C102.38 147.138 109.296 144.509 116.474 144.431C120.572 144.431 124.717 145.227 128.751 144.431C134.794 143.3 140.598 138.714 146.465 140.561C148.554 141.214 150.324 142.631 152.365 143.412C157.483 145.37 163.366 143.029 168.628 144.526C173.89 146.023 177.509 151.136 179.996 156.136C182.362 160.614 183.947 165.461 184.684 170.47C186.9 188.641 171.929 205.713 154.198 210.698C136.468 215.683 115.135 209.647 100.29 200.012" fill="#FC9A54"/>
<path d="M131.031 149.193C128.319 144.311 125.272 139.623 121.911 135.162C121.431 134.536 121.111 133.803 120.977 133.026C120.844 132.249 120.901 131.451 121.144 130.7C121.387 129.95 121.809 129.27 122.373 128.719C122.937 128.167 123.626 127.76 124.382 127.534C124.775 127.419 125.187 127.381 125.594 127.422C127.587 127.581 128.879 129.556 129.74 131.372C132.437 137.109 133.976 143.322 134.268 149.655" fill="#58302F"/>
<g style="mix-blend-mode:overlay" opacity="0.34">
<g style="mix-blend-mode:overlay" opacity="0.34">
<path d="M117.462 201.302C117.016 201.541 114.752 198.658 112.823 193.148C108.948 181.802 109.431 169.424 114.178 158.414C114.948 156.636 115.98 154.982 117.239 153.509C118.365 152.267 119.665 151.194 121.098 150.323C123.099 149.097 125.285 148.199 127.571 147.664C129.166 147.313 130.09 147.313 130.186 147.568C130.282 147.823 129.516 148.365 128.177 149.161C126.296 150.201 124.504 151.394 122.82 152.728C120.47 154.622 118.702 157.139 117.718 159.99C116.378 163.634 115.421 167.408 114.864 171.25C113.892 178.303 114.161 185.471 115.661 192.431C116.761 197.751 118.052 201.015 117.462 201.302Z" fill="#333333"/>
</g>
<g style="mix-blend-mode:overlay" opacity="0.34">
<path d="M148.57 198.674C148.044 198.802 146.8 195.839 146.13 190.711C145.796 188.211 145.588 185.217 145.429 181.952C145.269 178.687 145.11 175.152 144.632 171.553C144.237 168.201 143.429 164.911 142.224 161.758C141.2 159.227 139.809 156.861 138.094 154.735C136.612 152.824 135.32 151.215 134.571 149.957C133.821 148.699 133.566 147.966 133.789 147.791C134.013 147.616 134.682 148.03 135.783 148.89C137.351 150.093 138.857 151.374 140.295 152.728C142.55 154.858 144.394 157.384 145.732 160.182C147.302 163.594 148.324 167.233 148.761 170.963C149.196 174.577 149.366 178.218 149.271 181.857C149.271 185.042 149.128 187.988 149.064 190.504C149 195.505 149.192 198.547 148.57 198.674Z" fill="#333333"/>
</g>
<g style="mix-blend-mode:overlay" opacity="0.34">
<path d="M174.288 202.608C173.714 202.608 172.853 198.133 171.913 190.807C171.45 187.144 170.956 182.844 170.493 177.923C170.226 172.813 169.387 167.749 167.99 162.825C167.207 160.495 165.99 158.333 164.403 156.455C162.896 154.732 161.058 153.329 158.998 152.33C155.298 150.596 151.283 149.632 147.199 149.495C143.627 149.304 140.646 149.495 138.573 149.4C136.5 149.304 135.384 149.272 135.304 148.986C135.224 148.699 136.372 148.285 138.397 147.791C141.293 147.115 144.244 146.705 147.215 146.565C151.808 146.273 156.405 147.058 160.64 148.858C163.232 149.993 165.557 151.659 167.464 153.747C169.463 156.01 170.982 158.654 171.928 161.519C173.454 166.775 174.258 172.213 174.32 177.684C174.575 182.557 174.767 186.937 174.846 190.632C175.038 198.037 174.862 202.56 174.288 202.608Z" fill="#333333"/>
</g>
<g style="mix-blend-mode:overlay" opacity="0.34">
<path d="M129.437 146.74C129.437 147.377 125.435 147.106 119.503 148.46C116.068 149.245 112.753 150.487 109.65 152.155C105.916 153.973 102.755 156.783 100.514 160.277C98.4089 163.972 97.8189 168.415 97.3247 172.476C96.8304 176.537 96.384 180.28 96.0173 183.401C95.3157 189.644 94.662 193.53 94.088 193.498C93.514 193.467 93.1154 189.565 93.0835 183.226C93.0835 180.041 93.1632 176.283 93.514 172.078C93.6479 167.26 94.8227 162.529 96.958 158.207C98.2735 155.968 99.9989 153.996 102.044 152.394C103.871 150.958 105.856 149.734 107.96 148.747C111.475 147.067 115.248 145.99 119.121 145.562C125.626 144.877 129.564 146.262 129.437 146.74Z" fill="#333333"/>
</g>
</g>
<path d="M75.2258 133.06C71.4663 126.97 69.6099 119.899 69.8939 112.75C70.1779 105.602 72.5894 98.6997 76.8202 92.9267C80.4398 106.565 80.5987 120.89 77.2826 134.605" fill="#446815"/>
<path d="M72.7702 137.169C65.808 132.728 60.1776 126.489 56.4754 119.112C52.7731 111.736 51.1368 103.497 51.7396 95.2678C61.6786 106.445 69.5548 119.295 75.0024 133.219" fill="#698937"/>
<path d="M70.6816 134.589C66.1877 134.376 61.8516 132.869 58.1963 130.249C54.541 127.63 51.7227 124.009 50.0814 119.825C60.3684 120.756 69.9827 125.332 77.1869 132.725" fill="#446815"/>
<path d="M74.8271 136.229C70.6873 131.993 67.6293 126.823 65.9115 121.157C64.1937 115.491 63.8664 109.495 64.9575 103.677C72.502 111.215 76.8672 121.354 77.1549 132.009" fill="#88AA4D"/>
<path d="M74.6676 133.092C70.6815 131.499 66.3606 135.735 66.0736 139.988C65.7866 144.24 68.1304 148.205 70.4583 151.789C80.9497 167.969 92.5891 183.385 104.213 198.786C106.158 198.085 106.046 195.33 105.536 193.323C100.654 173.677 94.0653 154.493 85.8447 135.99C85.2117 134.117 84.062 132.461 82.5282 131.212C81.7456 130.63 80.7637 130.382 79.7982 130.523C78.8326 130.663 77.9623 131.18 77.3782 131.961" fill="#F78131"/>
<g opacity="0.36">
<g style="mix-blend-mode:overlay" opacity="0.36">
<g style="mix-blend-mode:overlay" opacity="0.36">
<path d="M76.5491 144.765C77.0753 145.785 75.7519 147.505 73.5038 148.428C71.2556 149.352 69.1031 149.049 68.7205 147.966C68.3378 146.883 69.8047 145.434 71.9093 144.574C74.014 143.714 76.023 143.746 76.5491 144.765Z" fill="#333333"/>
</g>
</g>
<g style="mix-blend-mode:overlay" opacity="0.36">
<g style="mix-blend-mode:overlay" opacity="0.36">
<path d="M84.3938 152.107C84.2822 150.96 85.6534 149.893 87.3594 149.352C89.0655 148.81 90.8035 148.922 91.3775 149.941C91.9515 150.96 90.7875 152.649 88.6032 153.317C86.4188 153.986 84.4895 153.238 84.3938 152.107Z" fill="#333333"/>
</g>
</g>
<g style="mix-blend-mode:overlay" opacity="0.36">
<g style="mix-blend-mode:overlay" opacity="0.36">
<path d="M88.3002 164.848C88.8104 165.883 87.9972 167.332 86.4825 168.033C84.9678 168.734 83.2936 168.59 82.7834 167.571C82.2732 166.552 83.0704 165.087 84.6011 164.386C86.1318 163.685 87.774 163.829 88.3002 164.848Z" fill="#333333"/>
</g>
</g>
<g style="mix-blend-mode:overlay" opacity="0.36">
<g style="mix-blend-mode:overlay" opacity="0.36">
<path d="M80.0091 130.751C79.9294 131.913 77.6972 132.725 75.2258 133.569C72.7544 134.414 70.4425 135.035 69.6453 134.127C69.2945 133.681 69.4858 132.869 70.2352 131.961C71.2369 130.865 72.5142 130.056 73.9343 129.62C75.3437 129.131 76.8602 129.037 78.319 129.349C79.3235 129.636 80.0091 130.177 80.0091 130.751Z" fill="#333333"/>
</g>
</g>
</g>
<path d="M80.009 130.751C79.9293 131.913 77.6971 132.725 75.2257 133.569C72.7543 134.414 70.4424 135.035 69.6452 134.127C69.2944 133.681 69.4857 132.869 70.2351 131.961C71.2368 130.865 72.5141 130.056 73.9342 129.62C75.3436 129.131 76.86 129.037 78.3189 129.349C79.3234 129.636 80.009 130.177 80.009 130.751Z" fill="#333333"/>
<path d="M84.7923 212.992C106.281 219.521 128.766 222.158 151.185 220.779C162.952 220.031 176.138 217.292 182.452 207.067C186.039 201.27 186.661 194.104 187.235 187.24L188.335 172.906C188.479 170.963 188.335 168.463 186.518 167.81C185.906 167.699 185.278 167.714 184.672 167.854C184.066 167.993 183.495 168.255 182.994 168.622C164.004 178.799 141.379 177.636 119.998 176.235C104.053 175.168 88.5233 172.54 73.5356 166.679C73.6313 166.679 69.4538 208.07 84.7923 212.992Z" fill="#58302F"/>
<path d="M156.016 181.729C158.232 174.547 161.118 167.396 166.141 161.774C171.163 156.152 178.641 152.33 186.119 153.286C194.091 154.305 200.357 160.309 205.077 166.727C212.915 177.399 217.918 189.88 219.618 203.006C220.093 205.558 220.006 208.183 219.363 210.698C219.015 211.951 218.33 213.086 217.383 213.978C216.436 214.871 215.263 215.488 213.99 215.763C209.956 216.32 206.863 212.402 204.694 208.962L193.214 190.791C190.759 186.465 187.723 182.494 184.19 178.99C182.416 177.243 180.306 175.872 177.988 174.961C175.67 174.049 173.191 173.616 170.701 173.687C165.742 174.085 160.911 177.78 160.289 182.701" fill="#446815"/>
<g style="mix-blend-mode:overlay">
<g style="mix-blend-mode:overlay">
<path d="M211.933 197.257C211.71 197.4 209.254 193.849 205.444 188.004C203.53 185.042 201.298 181.634 198.827 177.7C196.324 173.496 193.039 169.809 189.148 166.839C187.255 165.397 185.059 164.403 182.725 163.932C180.391 163.46 177.981 163.523 175.675 164.115C171.931 165.437 168.57 167.658 165.886 170.581C161.102 175.47 159.045 179.388 158.758 179.213C158.98 178.205 159.403 177.251 160.002 176.41C161.381 173.982 163.028 171.717 164.913 169.657C167.649 166.413 171.182 163.932 175.165 162.459C177.619 161.677 180.233 161.54 182.755 162.061C185.419 162.617 187.946 163.7 190.185 165.246C194.283 168.346 197.706 172.248 200.246 176.713C202.685 180.662 204.774 184.245 206.623 187.255C210.099 193.259 212.156 197.129 211.933 197.257Z" fill="#333333"/>
</g>
<g style="mix-blend-mode:overlay">
<path d="M190.568 182.111C190.328 181.968 190.775 180.885 190.95 179.101C191.156 176.767 190.834 174.416 190.009 172.221C189.122 170.015 188.056 167.884 186.821 165.851C185.864 164.259 185.338 163.128 185.561 162.969C185.784 162.809 186.661 163.606 187.905 165.087C189.581 167.035 190.912 169.254 191.843 171.648C192.8 174.127 192.973 176.84 192.337 179.42C191.7 181.267 190.759 182.191 190.568 182.111Z" fill="#333333"/>
</g>
<g style="mix-blend-mode:overlay">
<path d="M199.783 192.734C199.257 192.734 199.177 189.071 199.162 184.66C199.146 180.248 199.161 176.697 199.751 176.601C200.341 176.505 201.043 180.153 201.043 184.66C201.043 189.167 200.294 192.782 199.783 192.734Z" fill="#333333"/>
</g>
<g style="mix-blend-mode:overlay">
<path d="M199.688 163.414C199.688 163.94 196.77 164.322 193.198 164.45C189.627 164.577 186.693 164.45 186.645 163.876C186.597 163.303 189.499 162.698 193.135 162.57C196.77 162.443 199.704 162.905 199.688 163.414Z" fill="#333333"/>
</g>
<g style="mix-blend-mode:overlay">
<path d="M208.298 177.334C208.298 177.843 206.145 178.226 203.642 177.445C201.139 176.665 199.576 175.12 199.879 174.706C200.182 174.292 201.984 174.961 204.2 175.646C206.416 176.33 208.314 176.728 208.298 177.334Z" fill="#333333"/>
</g>
</g>
<path d="M153.688 176.665C153.688 176.665 166.157 175.072 169.856 173.91L169.011 185.87L152.444 186.65L153.688 176.665Z" fill="#58302F"/>
<path d="M221.181 219.075C216.573 216.193 171.115 206.335 148.458 201.557C145.078 211.112 141.512 220.572 137.76 229.937C163.191 242.932 195.877 256.358 210.801 256.676C228.818 256.963 233.49 226.433 221.181 219.075Z" fill="#F9C4B4"/>
<path d="M184.11 209.44L204.774 213.406" stroke="#333333" stroke-width="1.1" stroke-miterlimit="10" stroke-linecap="round"/>
<path d="M158.519 202.003C146.194 199.359 135.224 197.225 135.224 197.225C134.666 196.126 127.81 183.226 124.462 181.873C119.264 179.754 121.464 192.638 123.569 194.613C121.385 193.021 102.841 182.318 100.226 184.261C98.2653 185.727 110.798 195.839 110.798 195.839C110.798 195.839 92.047 187.733 91.2179 189.724C90.3888 191.715 107.736 200.554 107.736 200.554C107.736 200.554 92.7645 196.158 91.9832 198.483C91.3295 200.474 105.871 206.844 105.871 206.844C105.871 206.844 95.3315 206.605 94.7097 208.628C94.0879 210.65 110 214.536 113.11 215.747C121.528 221.146 134.778 232.119 147.948 238.409C148.203 237.852 155.888 212.052 158.519 202.003Z" fill="#FC9B27"/>
<path d="M158.519 202.003C158.519 202.003 160.48 201.461 160.656 202.353C160.831 203.245 151.089 239.317 149.272 238.983L147.502 238.616L158.519 202.003Z" fill="#FCB970"/>
</svg>
